<svg width="152" height="46" viewBox="0 0 152 46" fill="none" xmlns="http://www.w3.org/2000/svg">
<path d="M65.2156 19.125C61.9888 19.125 59.4074 21.7045 59.4074 25.2045C59.4074 28.7955 62.1587 31.3523 65.3968 31.3523C67.0385 31.3523 69.0652 30.6477 70.1068 29.5455L68.7142 28.1023C68.0122 28.8295 66.597 29.3636 65.3742 29.3636C63.3701 29.3636 61.9549 27.9659 61.6605 26.0114H70.8314C70.8314 21.8409 68.7821 19.125 65.2156 19.125ZM61.6831 24.2386C62.0454 22.3409 63.506 21.1136 65.3062 21.1136C67.3102 21.1136 68.4198 22.4205 68.6689 24.2386H61.6831Z" fill="white"/>
<path d="M81.4629 19.125C79.8892 19.125 78.4626 19.9432 77.7719 21.0909V19.3977H75.5415V31.0909H77.7719V23.5114C77.9531 22.1364 79.3457 21.0682 80.9761 21.0682C82.5499 21.0682 83.6594 22.2841 83.6594 24.0341V31.0909H85.8446V23.6477C85.8333 21 84.0331 19.125 81.4629 19.125Z" fill="white"/>
<path d="M95.4232 29.4205C94.7665 29.4205 94.2343 28.8295 94.2343 28.0227V21.3068H96.9856V19.4091H94.2343V16.1932H92.0492V19.4091H90.2942V21.3068H92.0492V28.1818C92.0492 30.0568 93.3059 31.375 95.1175 31.375C95.9553 31.375 96.8045 31.0568 97.4385 30.5341L96.6233 29C96.3629 29.2386 95.91 29.4205 95.4232 29.4205Z" fill="white"/>
<path d="M103.745 21.6364V19.3977H101.514V31.0909H103.745V24.4432C103.949 22.4091 105.658 21.0682 108.07 21.0682V19.125C106.066 19.125 104.481 20.1023 103.745 21.6364Z" fill="white"/>
<path d="M116.981 19.125C115.701 19.125 114.229 19.4659 112.565 20.2955L113.38 21.9432C114.399 21.4205 115.52 20.9659 116.675 20.9659C118.996 20.9659 119.675 22.5227 119.675 24V24.3636C118.543 23.9773 117.309 23.7273 116.165 23.7273C113.595 23.7273 111.501 25.2841 111.501 27.6136C111.501 29.8977 113.324 31.3409 115.803 31.3409C117.218 31.3409 118.826 30.6818 119.675 29.4659V31.0682H121.86V23.9886C121.849 21.1136 120.117 19.125 116.981 19.125ZM119.664 27.4318C119.279 28.875 117.66 29.6023 116.222 29.6023C114.761 29.6023 113.629 28.8295 113.629 27.5682C113.629 26.3068 114.931 25.4205 116.494 25.4205C117.637 25.4205 118.724 25.5795 119.675 25.875V27.4318H119.664Z" fill="white"/>
<path d="M132.65 25.1023L136.885 19.3977H134.405L131.405 23.4205L128.439 19.3977H125.914L130.171 25.125L125.733 31.0909H128.212L131.405 26.7955L134.587 31.0909H137.089L132.65 25.1023Z" fill="white"/>
<path d="M58.6148 36.6364C56.5768 36.4886 52.1159 36.0227 48.6174 35.3977C45.1075 34.7841 41.3825 33.1705 40.556 32.5455C39.888 32.0341 38.9935 31.0227 39.6049 29.5909C40.2163 28.1591 42.877 25.875 43.9639 25.0227C45.0509 24.1705 48.323 21.7841 50.5987 20.0114C52.8745 18.2273 54.72 16.7045 55.8183 15.1364C56.9052 13.5682 57.7091 12.4773 57.6638 10.8523C57.6185 9.23864 57.2335 8.65909 56.3391 7.61364C55.4446 6.56818 53.2594 5.71591 52.0253 5.375C50.7912 5.04545 47.9494 4.61364 45.0622 4.82955C42.175 5.04545 40.1144 5.40909 37.7368 6.05682C35.3591 6.70455 33.0494 7.80682 31.3624 8.79545C29.6867 9.78409 27.8638 10.9432 25.9164 12.8864C23.5388 15.2614 20.3006 19.9091 20.3006 19.9091L20.5271 20.1136L21.2857 19.3523L22.7349 20.625L22.0556 21.3409L23.969 23.2045L23.3576 23.9432L23.969 24.4545C23.969 24.4545 24.5578 23.6364 25.1918 22.9091C25.8145 22.1818 28.0903 19.7386 29.1772 18.8636C30.7963 17.5568 33.7627 15.3068 37.114 13.7159C40.4767 12.125 42.5826 11.7727 44.247 11.6364C45.6736 11.5227 47.0323 11.7045 47.6437 12.0795C48.4588 12.5909 48.5268 13.1477 48.1418 13.9545C47.7682 14.7614 46.4775 15.6705 45.3453 16.6136C44.213 17.5682 40.9862 19.8523 39.6049 20.9432C38.2349 22.0341 33.6834 25.9432 32.6418 27.1705C31.6001 28.4091 30.5585 30.4545 30.4566 31.9318C30.366 33.4091 30.6717 35.2955 31.2605 36.2159C32.0757 37.4773 33.6268 38.5909 35.3365 39.2614C37.0461 39.9318 39.8427 40.5909 43.8734 40.5455C47.9041 40.5 51.312 40.0682 54.9691 39.3068C58.6148 38.5455 62.453 36.6477 62.453 36.6477C62.453 36.6477 60.6528 36.7841 58.6148 36.6364ZM25.4183 16.6591L25.6787 16.9205L25.4183 17.1818L25.1578 16.9205L25.4183 16.6591ZM25.8145 18.8295L25.1465 19.6023L24.3766 18.9318L25.0446 18.1591L25.8145 18.8295ZM24.1275 16.9205L24.671 17.4659L24.1275 18.0114L23.5841 17.4659L24.1275 16.9205ZM22.6556 17.375L23.0066 17.6818L22.7009 18.0341L22.3499 17.7273L22.6556 17.375ZM22.0782 19.3068L23.0406 18.2045L24.1388 19.1705L23.1765 20.2727L22.0782 19.3068ZM24.5012 22.8977L22.984 21.5L24.3879 19.9773L25.9051 21.3864L24.5012 22.8977ZM27.5242 17L27.8525 17.3295L27.5242 17.6591L27.1958 17.3295L27.5242 17ZM26.7316 15.8523L26.8901 16.0114L26.7316 16.1705L26.5731 16.0114L26.7316 15.8523ZM26.3127 17.5455L26.5731 17.8068L26.3127 18.0682L26.0523 17.8068L26.3127 17.5455ZM26.675 20.4545L25.9504 19.7273L26.675 19L27.3996 19.7273L26.675 20.4545ZM27.66 19.1591L27.2751 18.7727L27.66 18.3864L28.045 18.7727L27.66 19.1591ZM21.8744 24.7955L20.2327 23.3636L21.6593 21.7159L23.301 23.1477L21.8744 24.7955ZM21.0479 20.0682L22.0442 20.9318L21.1838 21.9318L20.1874 21.0682L21.0479 20.0682ZM19.6892 23.4205L18.8967 22.7273L19.5873 21.9318L20.3799 22.625L19.6892 23.4205ZM18.908 25.5909L18.1155 24.8977L18.8061 24.1023L19.5987 24.7955L18.908 25.5909ZM21.3876 25.3182L20.5271 26.3068L19.542 25.4432L20.4025 24.4545L21.3876 25.3182ZM22.8708 24.5341L23.7652 25.3182L22.984 26.2159L22.0895 25.4318L22.8708 24.5341ZM21.58 25.8977L22.3726 26.5909L21.6819 27.3864L20.8894 26.6932L21.58 25.8977ZM19.1911 27.0455L18.625 27.6932L17.9796 27.125L18.5457 26.4773L19.1911 27.0455ZM20.278 28.1705L19.5534 27.5455L20.1761 26.8182L20.9007 27.4432L20.278 28.1705ZM19.1684 28.1591L19.6439 28.5795L19.225 29.0568L18.7495 28.6364L19.1684 28.1591ZM20.9347 28.3409L21.5121 28.8409L21.0139 29.4205L20.4365 28.9205L20.9347 28.3409ZM19.1797 29.75L19.5307 30.0568L19.225 30.4091L18.874 30.1023L19.1797 29.75ZM20.2667 29.7955L20.6969 30.1705L20.3233 30.6023L19.893 30.2273L20.2667 29.7955ZM19.6779 31.4545L19.3496 31.1705L19.6326 30.8409L19.961 31.125L19.6779 31.4545ZM19.259 31.8523L18.9986 32.1477L18.7042 31.8864L18.9646 31.5909L19.259 31.8523ZM20.1421 32.0909L19.8591 31.8409L20.1082 31.5568L20.3912 31.8068L20.1421 32.0909ZM19.61 32.5L19.8477 32.7159L19.6326 32.9545L19.3949 32.7386L19.61 32.5ZM19.3949 33.3295L19.6326 33.5455L19.4175 33.7841L19.1797 33.5682L19.3949 33.3295ZM20.1761 33.6023L19.9383 33.3864L20.1534 33.1477L20.3912 33.3636L20.1761 33.6023ZM20.2667 33.9886L20.4818 34.1818L20.2893 34.3977L20.0742 34.2045L20.2667 33.9886Z" fill="#3D84E8"/>
</svg>
