<svg width="100" height="100" viewBox="0 0 100 100" fill="none" xmlns="http://www.w3.org/2000/svg">
<path d="M8.33319 37.4999V29.1666C8.33319 16.6666 16.6665 8.33325 29.1665 8.33325H70.8332C83.3332 8.33325 91.6665 16.6666 91.6665 29.1666V37.4999" stroke="#323335" stroke-width="2.5" stroke-miterlimit="10" stroke-linecap="round" stroke-linejoin="round"/>
<path d="M8.33319 62.5V70.8333C8.33319 83.3333 16.6665 91.6667 29.1665 91.6667H70.8332C83.3332 91.6667 91.6665 83.3333 91.6665 70.8333V62.5" stroke="#323335" stroke-width="2.5" stroke-miterlimit="10" stroke-linecap="round" stroke-linejoin="round"/>
<g opacity="0.4">
<path d="M27.9174 38.5835L50.0007 51.3752L71.9174 38.6669" stroke="#323335" stroke-width="2.5" stroke-linecap="round" stroke-linejoin="round"/>
<path d="M49.9999 74.0419V51.3335" stroke="#323335" stroke-width="2.5" stroke-linecap="round" stroke-linejoin="round"/>
<path d="M44.8341 26.2085L31.5008 33.6253C28.5008 35.292 26.0009 39.5002 26.0009 42.9586V57.0836C26.0009 60.542 28.4592 64.7503 31.5008 66.4169L44.8341 73.8335C47.6675 75.4168 52.3342 75.4168 55.2092 73.8335L68.5425 66.4169C71.5425 64.7503 74.0425 60.542 74.0425 57.0836V42.9586C74.0425 39.5002 71.5842 35.292 68.5425 33.6253L55.2092 26.2085C52.3342 24.5835 47.6675 24.5835 44.8341 26.2085Z" stroke="#323335" stroke-width="2.5" stroke-linecap="round" stroke-linejoin="round"/>
</g>
</svg>
