<svg width="19" height="19" viewBox="0 0 19 19" fill="none" xmlns="http://www.w3.org/2000/svg">
<path opacity="0.4" d="M15.2419 5.70499C15.2419 6.10999 15.0244 6.47746 14.6794 6.66496L13.3744 7.36997L12.2644 7.96249L9.96192 9.20747C9.71442 9.34247 9.44442 9.40999 9.16692 9.40999C8.88942 9.40999 8.61943 9.34247 8.37193 9.20747L3.65442 6.66496C3.30942 6.47746 3.09192 6.10999 3.09192 5.70499C3.09192 5.29999 3.30942 4.93247 3.65442 4.74497L5.13192 3.94997L6.30943 3.31249L8.37193 2.2025C8.86693 1.9325 9.46692 1.9325 9.96192 2.2025L14.6794 4.74497C15.0244 4.93247 15.2419 5.29999 15.2419 5.70499Z" fill="white"/>
<path opacity="0.4" d="M7.59215 10.0925L3.20464 7.89504C2.86714 7.72254 2.47715 7.74504 2.15465 7.94004C1.83215 8.13504 1.64465 8.48006 1.64465 8.85506V13.0025C1.64465 13.7225 2.04214 14.3675 2.68714 14.69L7.07465 16.8801C7.22465 16.9551 7.38966 16.9925 7.55466 16.9925C7.74966 16.9925 7.94466 16.9401 8.11716 16.8276C8.43966 16.6326 8.62715 16.2875 8.62715 15.9125V11.7651C8.63465 11.0601 8.23715 10.415 7.59215 10.0925Z" fill="white"/>
<path d="M16.6891 8.8625V13.01C16.6891 13.7225 16.2916 14.3675 15.6466 14.69L11.2591 16.8875C11.1091 16.9625 10.9441 17 10.7791 17C10.5841 17 10.3891 16.9475 10.2091 16.835C9.89411 16.64 9.6991 16.295 9.6991 15.92V11.78C9.6991 11.06 10.0966 10.415 10.7416 10.0925L12.3541 9.28995L13.4791 8.72745L15.1291 7.90247C15.4666 7.72997 15.8566 7.74497 16.1791 7.94747C16.4941 8.14247 16.6891 8.4875 16.6891 8.8625Z" fill="white"/>
</svg>
