<svg width="18" height="19" viewBox="0 0 18 19" fill="none" xmlns="http://www.w3.org/2000/svg">
<path opacity="0.4" d="M15.0753 5.70499C15.0753 6.10999 14.8578 6.47746 14.5128 6.66496L13.2078 7.36997L12.0978 7.96249L9.7953 9.20747C9.5478 9.34247 9.2778 9.40999 9.0003 9.40999C8.7228 9.40999 8.4528 9.34247 8.2053 9.20747L3.48779 6.66496C3.14279 6.47746 2.92529 6.10999 2.92529 5.70499C2.92529 5.29999 3.14279 4.93247 3.48779 4.74497L4.96529 3.94997L6.1428 3.31249L8.2053 2.2025C8.7003 1.9325 9.3003 1.9325 9.7953 2.2025L14.5128 4.74497C14.8578 4.93247 15.0753 5.29999 15.0753 5.70499Z" fill="#344767"/>
<path opacity="0.4" d="M7.42552 10.0925L3.03802 7.89504C2.70052 7.72254 2.31052 7.74504 1.98802 7.94004C1.66552 8.13504 1.47803 8.48006 1.47803 8.85506V13.0025C1.47803 13.7225 1.87552 14.3675 2.52052 14.69L6.90802 16.8801C7.05802 16.9551 7.22303 16.9925 7.38803 16.9925C7.58303 16.9925 7.77803 16.9401 7.95053 16.8276C8.27303 16.6326 8.46053 16.2875 8.46053 15.9125V11.7651C8.46803 11.0601 8.07052 10.415 7.42552 10.0925Z" fill="#344767"/>
<path d="M16.5225 8.8625V13.01C16.5225 13.7225 16.125 14.3675 15.48 14.69L11.0925 16.8875C10.9425 16.9625 10.7775 17 10.6125 17C10.4175 17 10.2225 16.9475 10.0425 16.835C9.72749 16.64 9.53247 16.295 9.53247 15.92V11.78C9.53247 11.06 9.92998 10.415 10.575 10.0925L12.1875 9.28995L13.3125 8.72745L14.9625 7.90247C15.3 7.72997 15.69 7.74497 16.0125 7.94747C16.3275 8.14247 16.5225 8.4875 16.5225 8.8625Z" fill="#344767"/>
</svg>
