<svg width="19" height="19" viewBox="0 0 19 19" fill="none" xmlns="http://www.w3.org/2000/svg">
<path opacity="0.4" d="M13.5833 15.875H6.08334C3.83334 15.875 2.33334 14.75 2.33334 12.125V6.875C2.33334 4.25 3.83334 3.125 6.08334 3.125H13.5833C15.8333 3.125 17.3333 4.25 17.3333 6.875V12.125C17.3333 14.75 15.8333 15.875 13.5833 15.875Z" fill="#344767"/>
<path d="M9.83334 11.75C11.076 11.75 12.0833 10.7426 12.0833 9.5C12.0833 8.25736 11.076 7.25 9.83334 7.25C8.5907 7.25 7.58334 8.25736 7.58334 9.5C7.58334 10.7426 8.5907 11.75 9.83334 11.75Z" fill="#344767"/>
<path d="M15.0833 6.3125H12.8333C12.5258 6.3125 12.2708 6.0575 12.2708 5.75C12.2708 5.4425 12.5258 5.1875 12.8333 5.1875H15.0833C15.3908 5.1875 15.6458 5.4425 15.6458 5.75C15.6458 6.0575 15.3908 6.3125 15.0833 6.3125Z" fill="#344767"/>
<path d="M6.83334 13.8125H4.58334C4.27584 13.8125 4.02084 13.5575 4.02084 13.25C4.02084 12.9425 4.27584 12.6875 4.58334 12.6875H6.83334C7.14084 12.6875 7.39584 12.9425 7.39584 13.25C7.39584 13.5575 7.14084 13.8125 6.83334 13.8125Z" fill="#344767"/>
</svg>
