<svg width="19" height="19" viewBox="0 0 19 19" fill="none" xmlns="http://www.w3.org/2000/svg">
<path opacity="0.4" d="M9.5 17C13.6421 17 17 13.6421 17 9.5C17 5.35786 13.6421 2 9.5 2C5.35786 2 2 5.35786 2 9.5C2 13.6421 5.35786 17 9.5 17Z" fill="white"/>
<path d="M6.74001 12.515C6.59751 12.515 6.45501 12.4625 6.34251 12.35C6.12501 12.1325 6.12501 11.7725 6.34251 11.555L11.255 6.6425C11.4725 6.425 11.8325 6.425 12.05 6.6425C12.2675 6.86 12.2675 7.21999 12.05 7.43749L7.13751 12.35C7.02501 12.4625 6.88251 12.515 6.74001 12.515Z" fill="white"/>
<path d="M7.04751 6.245C6.44001 6.245 5.9375 6.74 5.9375 7.355C5.9375 7.9625 6.43251 8.46499 7.04751 8.46499C7.65501 8.46499 8.15749 7.97 8.15749 7.355C8.14999 6.74 7.65501 6.245 7.04751 6.245Z" fill="white"/>
<path d="M11.9525 10.5425C11.345 10.5425 10.8425 11.0375 10.8425 11.6525C10.8425 12.26 11.3375 12.7625 11.9525 12.7625C12.56 12.7625 13.0625 12.2675 13.0625 11.6525C13.0625 11.0375 12.5675 10.5425 11.9525 10.5425Z" fill="white"/>
</svg>
