<svg width="18" height="19" viewBox="0 0 18 19" fill="none" xmlns="http://www.w3.org/2000/svg">
<path opacity="0.4" d="M9 17C13.1421 17 16.5 13.6421 16.5 9.5C16.5 5.35786 13.1421 2 9 2C4.85786 2 1.5 5.35786 1.5 9.5C1.5 13.6421 4.85786 17 9 17Z" fill="#344767"/>
<path d="M6.24001 12.5151C6.09751 12.5151 5.95501 12.4626 5.84251 12.3501C5.62501 12.1326 5.62501 11.7726 5.84251 11.5551L10.755 6.64262C10.9725 6.42512 11.3325 6.42512 11.55 6.64262C11.7675 6.86012 11.7675 7.22012 11.55 7.43762L6.63751 12.3501C6.52501 12.4626 6.38251 12.5151 6.24001 12.5151Z" fill="#344767"/>
<path d="M6.54751 6.24512C5.94001 6.24512 5.4375 6.74013 5.4375 7.35513C5.4375 7.96263 5.93251 8.46511 6.54751 8.46511C7.15501 8.46511 7.65749 7.97013 7.65749 7.35513C7.64999 6.74013 7.15501 6.24512 6.54751 6.24512Z" fill="#344767"/>
<path d="M11.4525 10.5427C10.845 10.5427 10.3425 11.0377 10.3425 11.6527C10.3425 12.2602 10.8375 12.7627 11.4525 12.7627C12.06 12.7627 12.5625 12.2677 12.5625 11.6527C12.5625 11.0377 12.0675 10.5427 11.4525 10.5427Z" fill="#344767"/>
</svg>
