<svg width="46" height="37" viewBox="0 0 46 37" fill="none" xmlns="http://www.w3.org/2000/svg">
<path d="M41.6148 32.6364C39.5768 32.4886 35.1159 32.0227 31.6174 31.3977C28.1075 30.7841 24.3825 29.1705 23.556 28.5455C22.888 28.0341 21.9935 27.0227 22.6049 25.5909C23.2163 24.1591 25.877 21.875 26.9639 21.0227C28.0509 20.1705 31.323 17.7841 33.5987 16.0114C35.8745 14.2273 37.72 12.7045 38.8183 11.1364C39.9052 9.56818 40.7091 8.47727 40.6638 6.85227C40.6185 5.23864 40.2335 4.65909 39.3391 3.61364C38.4446 2.56818 36.2594 1.71591 35.0253 1.375C33.7912 1.04545 30.9494 0.613636 28.0622 0.829546C25.175 1.04545 23.1144 1.40909 20.7368 2.05682C18.3591 2.70455 16.0494 3.80682 14.3624 4.79545C12.6867 5.78409 10.8638 6.94318 8.91643 8.88636C6.53877 11.2614 3.30063 15.9091 3.30063 15.9091L3.52708 16.1136L4.28566 15.3523L5.7349 16.625L5.05557 17.3409L6.96901 19.2045L6.35762 19.9432L6.96901 20.4545C6.96901 20.4545 7.55777 19.6364 8.19181 18.9091C8.81453 18.1818 11.0903 15.7386 12.1772 14.8636C13.7963 13.5568 16.7627 11.3068 20.114 9.71591C23.4767 8.125 25.5826 7.77273 27.247 7.63636C28.6736 7.52273 30.0323 7.70455 30.6437 8.07955C31.4588 8.59091 31.5268 9.14773 31.1418 9.95455C30.7682 10.7614 29.4775 11.6705 28.3453 12.6136C27.213 13.5682 23.9862 15.8523 22.6049 16.9432C21.2349 18.0341 16.6834 21.9432 15.6418 23.1705C14.6001 24.4091 13.5585 26.4545 13.4566 27.9318C13.366 29.4091 13.6717 31.2955 14.2605 32.2159C15.0757 33.4773 16.6268 34.5909 18.3365 35.2614C20.0461 35.9318 22.8427 36.5909 26.8734 36.5455C30.9041 36.5 34.312 36.0682 37.9691 35.3068C41.6148 34.5455 45.453 32.6477 45.453 32.6477C45.453 32.6477 43.6528 32.7841 41.6148 32.6364ZM8.41825 12.6591L8.67866 12.9205L8.41825 13.1818L8.15784 12.9205L8.41825 12.6591ZM8.81453 14.8295L8.14652 15.6023L7.37661 14.9318L8.04462 14.1591L8.81453 14.8295ZM7.12752 12.9205L7.67099 13.4659L7.12752 14.0114L6.58406 13.4659L7.12752 12.9205ZM5.65564 13.375L6.00663 13.6818L5.70093 14.0341L5.34994 13.7273L5.65564 13.375ZM5.07821 15.3068L6.0406 14.2045L7.13885 15.1705L6.17646 16.2727L5.07821 15.3068ZM7.50115 18.8977L5.98399 17.5L7.38793 15.9773L8.9051 17.3864L7.50115 18.8977ZM10.5242 13L10.8525 13.3295L10.5242 13.6591L10.1958 13.3295L10.5242 13ZM9.73162 11.8523L9.89013 12.0114L9.73162 12.1705L9.57311 12.0114L9.73162 11.8523ZM9.3127 13.5455L9.57311 13.8068L9.3127 14.0682L9.05229 13.8068L9.3127 13.5455ZM9.67501 16.4545L8.95039 15.7273L9.67501 15L10.3996 15.7273L9.67501 16.4545ZM10.66 15.1591L10.2751 14.7727L10.66 14.3864L11.045 14.7727L10.66 15.1591ZM4.87441 20.7955L3.2327 19.3636L4.65929 17.7159L6.30101 19.1477L4.87441 20.7955ZM4.0479 16.0682L5.04425 16.9318L4.18376 17.9318L3.18741 17.0682L4.0479 16.0682ZM2.68924 19.4205L1.89669 18.7273L2.58734 17.9318L3.37989 18.625L2.68924 19.4205ZM1.90801 21.5909L1.11546 20.8977L1.80611 20.1023L2.59866 20.7955L1.90801 21.5909ZM4.38756 21.3182L3.52708 22.3068L2.54205 21.4432L3.40253 20.4545L4.38756 21.3182ZM5.87076 20.5341L6.76521 21.3182L5.98399 22.2159L5.08954 21.4318L5.87076 20.5341ZM4.58004 21.8977L5.37259 22.5909L4.68194 23.3864L3.88939 22.6932L4.58004 21.8977ZM2.19106 23.0455L1.62495 23.6932L0.979591 23.125L1.5457 22.4773L2.19106 23.0455ZM3.27799 24.1705L2.55337 23.5455L3.17609 22.8182L3.90071 23.4432L3.27799 24.1705ZM2.16842 24.1591L2.64395 24.5795L2.22503 25.0568L1.7495 24.6364L2.16842 24.1591ZM3.93467 24.3409L4.51211 24.8409L4.01393 25.4205L3.4365 24.9205L3.93467 24.3409ZM2.17974 25.75L2.53073 26.0568L2.22503 26.4091L1.87404 26.1023L2.17974 25.75ZM3.26667 25.7955L3.69691 26.1705L3.32328 26.6023L2.89304 26.2273L3.26667 25.7955ZM2.67792 27.4545L2.34957 27.1705L2.63263 26.8409L2.96097 27.125L2.67792 27.4545ZM2.259 27.8523L1.99859 28.1477L1.70421 27.8864L1.96462 27.5909L2.259 27.8523ZM3.14212 28.0909L2.85907 27.8409L3.10816 27.5568L3.39121 27.8068L3.14212 28.0909ZM2.60998 28.5L2.84775 28.7159L2.63263 28.9545L2.39486 28.7386L2.60998 28.5ZM2.39486 29.3295L2.63263 29.5455L2.41751 29.7841L2.17974 29.5682L2.39486 29.3295ZM3.17609 29.6023L2.93833 29.3864L3.15345 29.1477L3.39121 29.3636L3.17609 29.6023ZM3.26667 29.9886L3.48179 30.1818L3.28931 30.3977L3.07419 30.2045L3.26667 29.9886Z" fill="#3D84E8"/>
</svg>
